<?xml version="1.0" encoding="UTF-8"?>
<svg version="1.1" xmlns="http://www.w3.org/2000/svg" width="512" height="512">
<path d="M0 0 C1.02317322 0.22203094 2.04634644 0.44406189 3.1005249 0.67282104 C117.43431641 25.48974106 117.43431641 25.48974106 130.4375 42.6875 C137.01497485 55.17985396 133.94776339 71.76821078 131.37890625 85.06640625 C131.16041519 86.21921585 130.94192413 87.37202545 130.71681213 88.55976868 C128.1005233 101.96745527 124.76207454 115.19287341 121.37390137 128.42254639 C120.53541584 131.70396474 119.70665136 134.98783545 118.87695312 138.27148438 C118.22922667 140.83074435 117.58144131 143.38998942 116.93359375 145.94921875 C116.62051773 147.1869957 116.30744171 148.42477264 115.98487854 149.70005798 C113.49195377 159.53224688 113.49195377 159.53224688 112.25170898 164.05493164 C109.01511862 176.12490163 107.22777479 188.43998114 105.26235962 200.76818848 C101.72765885 222.90857597 98.12952809 244.97852852 92.4375 266.6875 C92.0348291 268.25032715 92.0348291 268.25032715 91.62402344 269.84472656 C85.21893268 294.32759434 76.82025779 322.30474221 58.4375 340.6875 C57.5964062 351.78950276 59.04032493 363.14535301 59.91906738 374.20551872 C60.19313777 377.66092319 60.4602589 381.116805 60.72558594 384.57289124 C61.48054302 394.39155802 62.24722961 404.20929457 63.01953125 414.02661133 C63.49353534 420.0581766 63.95914792 426.0903464 64.42004395 432.12292671 C64.59543751 434.39647757 64.77395825 436.66978981 64.95593262 438.94282341 C65.85384519 450.16244638 66.61611813 461.37419097 66.796875 472.63110352 C66.83726898 473.93462092 66.83726898 473.93462092 66.878479 475.26447201 C66.91937075 484.47676517 63.75203391 492.22803686 57.42578125 498.93359375 C49.78123328 505.67701622 40.90503958 507.99526779 30.91165161 507.95492554 C30.07897605 507.95945665 29.24630049 507.96398776 28.38839233 507.96865618 C25.61189836 507.98126686 22.83560138 507.97968198 20.05908203 507.97802734 C18.06282297 507.98401462 16.06656622 507.99082062 14.0703125 507.99838257 C8.6570598 508.0160281 3.24387036 508.0207373 -2.16940832 508.02201414 C-5.55338668 508.02343695 -8.93734902 508.02770899 -12.32132339 508.03300858 C-24.13235747 508.05150306 -35.94334645 508.05967979 -47.75439453 508.05810547 C-58.75562049 508.05690377 -69.75665035 508.07801325 -80.75782669 508.1095928 C-90.21111817 508.13575992 -99.66434562 508.1464726 -109.11767304 508.14519465 C-114.76015822 508.14468521 -120.40246903 508.15035888 -126.04491806 508.17155075 C-131.35228489 508.19094071 -136.6593111 508.19105225 -141.96669006 508.17651749 C-143.91088993 508.17442935 -145.85511116 508.17913056 -147.79927444 508.1912384 C-166.6839234 508.30120146 -166.6839234 508.30120146 -173.5625 503.6875 C-174.37203125 503.14609375 -175.1815625 502.6046875 -176.015625 502.046875 C-183.20665321 495.60621495 -187.89698314 488.81364982 -188.81640625 478.96875 C-189.2972244 466.9327859 -184.92059326 458.26000102 -177.5625 449 C-176.2276711 447.27228488 -174.89303868 445.54441795 -173.55859375 443.81640625 C-172.8919873 442.96320801 -172.22538086 442.11000977 -171.53857422 441.23095703 C-168.51480915 437.33898958 -165.57100488 433.38843786 -162.625 429.4375 C-161.63714022 428.11947567 -160.6489037 426.80173356 -159.66015625 425.484375 C-158.96792969 424.56140625 -158.27570313 423.6384375 -157.5625 422.6875 C-158.39160889 422.59774902 -159.22071777 422.50799805 -160.07495117 422.41552734 C-213.75248833 416.45424357 -213.75248833 416.45424357 -227.5625 400.6875 C-233.44282667 391.57029627 -233.68491735 381.34086553 -231.9140625 370.84375 C-227.18897233 349.07323453 -215.18335761 328.75878107 -202.5625 310.6875 C-201.58536319 309.24997157 -200.61026943 307.81105326 -199.63671875 306.37109375 C-193.58984061 297.44531976 -187.3973676 288.64658693 -181.04541016 279.93554688 C-176.9744701 274.32652845 -173.15473568 268.61795454 -169.5625 262.6875 C-173.40173376 258.56662361 -177.49918345 255.53332681 -182.1875 252.4375 C-205.47596731 236.71312687 -205.47596731 236.71312687 -209.5625 226.6875 C-209.96875 223.98828125 -209.96875 223.98828125 -210.0625 221 C-210.13984375 219.54013672 -210.13984375 219.54013672 -210.21875 218.05078125 C-208.45506439 209.0118925 -200.70727627 202.38297752 -194.375 196.1875 C-193.52784424 195.35017334 -192.68068848 194.51284668 -191.80786133 193.65014648 C-186.80038217 188.74526192 -181.74884726 184.08706461 -176.21875 179.77734375 C-172.97147278 177.22250064 -169.8683604 174.52187413 -166.75 171.8125 C-161.62149022 167.38161839 -156.38331881 163.13371375 -151.03076172 158.97753906 C-144.0697269 153.55802821 -137.29480973 147.91391741 -130.5 142.28857422 C-127.7998499 140.05727579 -125.08814054 137.84048569 -122.375 135.625 C-118.75354457 132.66600593 -115.14720185 129.69089884 -111.5625 126.6875 C-113.18571606 119.50138723 -116.10243471 113.41136409 -119.69335938 107.04272461 C-123.61800051 100.02845256 -125.84384008 93.72499686 -124.5625 85.6875 C-119.68417402 72.74265076 -108.8975863 61.75685998 -99.51953125 51.85546875 C-97.36644018 49.5784327 -95.30206501 47.24230509 -93.2578125 44.8671875 C-89.24335648 40.25355894 -84.95889886 35.93695507 -80.625 31.625 C-79.86509766 30.86123047 -79.10519531 30.09746094 -78.32226562 29.31054688 C-73.56566086 24.56206611 -68.66985062 20.05453545 -63.5625 15.6875 C-62.10263672 14.40552734 -62.10263672 14.40552734 -60.61328125 13.09765625 C-40.16967604 -4.42960014 -25.86820532 -5.70779357 0 0 Z " fill="#8FA3AD" transform="translate(305.5625,4.3125)"/>
<path d="M0 0 C1.02317322 0.22203094 2.04634644 0.44406189 3.1005249 0.67282104 C117.43431641 25.48974106 117.43431641 25.48974106 130.4375 42.6875 C137.01497485 55.17985396 133.94776339 71.76821078 131.37890625 85.06640625 C131.16041519 86.21921585 130.94192413 87.37202545 130.71681213 88.55976868 C128.1005233 101.96745527 124.76207454 115.19287341 121.37390137 128.42254639 C120.53541584 131.70396474 119.70665136 134.98783545 118.87695312 138.27148438 C118.22922667 140.83074435 117.58144131 143.38998942 116.93359375 145.94921875 C116.62051773 147.1869957 116.30744171 148.42477264 115.98487854 149.70005798 C113.49195377 159.53224688 113.49195377 159.53224688 112.25170898 164.05493164 C109.01511862 176.12490163 107.22777479 188.43998114 105.26235962 200.76818848 C101.72765885 222.90857597 98.12952809 244.97852852 92.4375 266.6875 C92.0348291 268.25032715 92.0348291 268.25032715 91.62402344 269.84472656 C85.21893268 294.32759434 76.82025779 322.30474221 58.4375 340.6875 C57.5964062 351.78950276 59.04032493 363.14535301 59.91906738 374.20551872 C60.19313777 377.66092319 60.4602589 381.116805 60.72558594 384.57289124 C61.48054302 394.39155802 62.24722961 404.20929457 63.01953125 414.02661133 C63.49353534 420.0581766 63.95914792 426.0903464 64.42004395 432.12292671 C64.59543751 434.39647757 64.77395825 436.66978981 64.95593262 438.94282341 C65.85384519 450.16244638 66.61611813 461.37419097 66.796875 472.63110352 C66.83726898 473.93462092 66.83726898 473.93462092 66.878479 475.26447201 C66.91937075 484.47676517 63.75203391 492.22803686 57.42578125 498.93359375 C49.78123328 505.67701622 40.90503958 507.99526779 30.91165161 507.95492554 C30.07897605 507.95945665 29.24630049 507.96398776 28.38839233 507.96865618 C25.61189836 507.98126686 22.83560138 507.97968198 20.05908203 507.97802734 C18.06282297 507.98401462 16.06656622 507.99082062 14.0703125 507.99838257 C8.6570598 508.0160281 3.24387036 508.0207373 -2.16940832 508.02201414 C-5.55338668 508.02343695 -8.93734902 508.02770899 -12.32132339 508.03300858 C-24.13235747 508.05150306 -35.94334645 508.05967979 -47.75439453 508.05810547 C-58.75562049 508.05690377 -69.75665035 508.07801325 -80.75782669 508.1095928 C-90.21111817 508.13575992 -99.66434562 508.1464726 -109.11767304 508.14519465 C-114.76015822 508.14468521 -120.40246903 508.15035888 -126.04491806 508.17155075 C-131.35228489 508.19094071 -136.6593111 508.19105225 -141.96669006 508.17651749 C-143.91088993 508.17442935 -145.85511116 508.17913056 -147.79927444 508.1912384 C-166.6839234 508.30120146 -166.6839234 508.30120146 -173.5625 503.6875 C-174.37203125 503.14609375 -175.1815625 502.6046875 -176.015625 502.046875 C-183.20665321 495.60621495 -187.89698314 488.81364982 -188.81640625 478.96875 C-189.2972244 466.9327859 -184.92059326 458.26000102 -177.5625 449 C-176.2276711 447.27228488 -174.89303868 445.54441795 -173.55859375 443.81640625 C-172.8919873 442.96320801 -172.22538086 442.11000977 -171.53857422 441.23095703 C-168.51480915 437.33898958 -165.57100488 433.38843786 -162.625 429.4375 C-161.63714022 428.11947567 -160.6489037 426.80173356 -159.66015625 425.484375 C-158.96792969 424.56140625 -158.27570313 423.6384375 -157.5625 422.6875 C-158.39160889 422.59774902 -159.22071777 422.50799805 -160.07495117 422.41552734 C-213.75248833 416.45424357 -213.75248833 416.45424357 -227.5625 400.6875 C-233.44282667 391.57029627 -233.68491735 381.34086553 -231.9140625 370.84375 C-227.18897233 349.07323453 -215.18335761 328.75878107 -202.5625 310.6875 C-201.58536319 309.24997157 -200.61026943 307.81105326 -199.63671875 306.37109375 C-193.58984061 297.44531976 -187.3973676 288.64658693 -181.04541016 279.93554688 C-176.9744701 274.32652845 -173.15473568 268.61795454 -169.5625 262.6875 C-173.40173376 258.56662361 -177.49918345 255.53332681 -182.1875 252.4375 C-205.47596731 236.71312687 -205.47596731 236.71312687 -209.5625 226.6875 C-209.96875 223.98828125 -209.96875 223.98828125 -210.0625 221 C-210.13984375 219.54013672 -210.13984375 219.54013672 -210.21875 218.05078125 C-208.45506439 209.0118925 -200.70727627 202.38297752 -194.375 196.1875 C-193.52784424 195.35017334 -192.68068848 194.51284668 -191.80786133 193.65014648 C-186.80038217 188.74526192 -181.74884726 184.08706461 -176.21875 179.77734375 C-172.97147278 177.22250064 -169.8683604 174.52187413 -166.75 171.8125 C-161.62149022 167.38161839 -156.38331881 163.13371375 -151.03076172 158.97753906 C-144.0697269 153.55802821 -137.29480973 147.91391741 -130.5 142.28857422 C-127.7998499 140.05727579 -125.08814054 137.84048569 -122.375 135.625 C-118.75354457 132.66600593 -115.14720185 129.69089884 -111.5625 126.6875 C-113.18571606 119.50138723 -116.10243471 113.41136409 -119.69335938 107.04272461 C-123.61800051 100.02845256 -125.84384008 93.72499686 -124.5625 85.6875 C-119.68417402 72.74265076 -108.8975863 61.75685998 -99.51953125 51.85546875 C-97.36644018 49.5784327 -95.30206501 47.24230509 -93.2578125 44.8671875 C-89.24335648 40.25355894 -84.95889886 35.93695507 -80.625 31.625 C-79.86509766 30.86123047 -79.10519531 30.09746094 -78.32226562 29.31054688 C-73.56566086 24.56206611 -68.66985062 20.05453545 -63.5625 15.6875 C-62.10263672 14.40552734 -62.10263672 14.40552734 -60.61328125 13.09765625 C-40.16967604 -4.42960014 -25.86820532 -5.70779357 0 0 Z M-38.1875 22.25 C-38.77321777 22.74250244 -39.35893555 23.23500488 -39.96240234 23.74243164 C-41.85890298 25.35988791 -43.71355497 27.0159693 -45.5625 28.6875 C-46.17867187 29.23889648 -46.79484375 29.79029297 -47.4296875 30.35839844 C-55.92076517 38.0082957 -64.02629701 46.0642527 -72.125 54.125 C-72.95789551 54.95314209 -73.79079102 55.78128418 -74.64892578 56.63452148 C-79.49170888 61.49050951 -84.13737239 66.44800519 -88.5625 71.6875 C-89.10156982 72.32518311 -89.64063965 72.96286621 -90.19604492 73.61987305 C-91.77201118 75.50465485 -93.32604573 77.40548606 -94.875 79.3125 C-95.39900391 79.9415625 -95.92300781 80.570625 -96.46289062 81.21875 C-100.67779124 86.39647132 -100.67779124 86.39647132 -102.5625 92.6875 C-101.5426869 95.7053532 -100.00344045 98.33468022 -98.375 101.0625 C-91.93055585 112.24225335 -88.22249122 121.82064105 -91.078125 135.08203125 C-95.04366218 144.62653494 -106.25432569 151.33881503 -114.22802734 157.51098633 C-118.26291175 160.63782971 -122.18762866 163.86491596 -126.0625 167.1875 C-130.43371494 170.9334031 -134.88547188 174.53880107 -139.4375 178.0625 C-145.17944741 182.51517684 -150.68996225 187.19021301 -156.15209961 191.98071289 C-159.87264682 195.24015206 -163.64219405 198.40416401 -167.5 201.5 C-171.54518981 204.76981167 -175.23096906 208.23039399 -178.83984375 211.97265625 C-180.5625 213.6875 -180.5625 213.6875 -183.5 215.9375 C-185.8243167 217.90964751 -185.99567629 218.79968234 -186.5625 221.6875 C-180.58032547 226.68489396 -174.39839715 231.24444071 -168 235.6875 C-148.11631841 249.59218762 -148.11631841 249.59218762 -146.12109375 258.703125 C-145.20860313 269.49769493 -153.17716921 278.96285208 -159.31005859 287.14331055 C-161.76490749 290.09237005 -161.76490749 290.09237005 -162.5625 293.6875 C-161.26054687 293.73648437 -159.95859375 293.78546875 -158.6171875 293.8359375 C-156.89060529 293.91100629 -155.16404378 293.98655233 -153.4375 294.0625 C-152.5815625 294.0934375 -151.725625 294.124375 -150.84375 294.15625 C-146.11359338 294.37456492 -141.95245858 294.72868937 -137.5625 296.6875 C-134.87161273 301.09077007 -135.07068651 305.52352066 -136.1875 310.4375 C-138.15246741 313.65290122 -139.93938345 313.78890086 -143.5625 314.6875 C-146.29664992 314.72270365 -148.91671756 314.66425687 -151.63671875 314.50390625 C-167.36041252 313.28753011 -167.36041252 313.28753011 -182.15966797 317.12060547 C-185.9785263 320.82764364 -187.8340422 325.35488788 -189.62011719 330.29589844 C-190.88721181 333.51156137 -192.63798264 336.28748215 -194.47973633 339.20117188 C-199.60477642 347.32012163 -203.79271684 355.87039606 -207.5625 364.6875 C-207.9234375 365.50476563 -208.284375 366.32203125 -208.65625 367.1640625 C-211.04902485 373.25677624 -211.86976226 380.26299404 -210.5625 386.6875 C-195.01444826 402.15540714 -160.84310521 400.85623252 -140.6875 400.9375 C-109.14756667 400.81492784 -109.14756667 400.81492784 -79 392.375 C-74.36389469 390.35721323 -70.3896805 390.00634345 -65.5625 391.6875 C-62.26277691 394.42385573 -61.65567392 395.94210868 -61.125 400.1875 C-61.60475433 404.02553466 -62.22054696 405.64344194 -64.5625 408.6875 C-66.91468793 409.96586301 -68.94059014 410.88232077 -71.4375 411.75 C-72.14165039 412.00112549 -72.84580078 412.25225098 -73.57128906 412.51098633 C-79.06839078 414.37458258 -84.62109293 415.75115629 -90.3125 416.875 C-91.17351318 417.04507568 -92.03452637 417.21515137 -92.92163086 417.39038086 C-98.18196117 418.33415571 -103.29356568 418.8030172 -108.63671875 418.96484375 C-122.45063871 419.038341 -122.45063871 419.038341 -134.10546875 425.38671875 C-137.25213207 429.12036681 -139.80222947 433.152644 -142.22314453 437.38525391 C-143.78842112 440.07584054 -145.55046793 442.54502558 -147.40429688 445.04125977 C-148.62402538 446.68618563 -149.7966525 448.35724487 -150.96484375 450.0390625 C-152.93010236 452.83941905 -154.98251509 455.56028854 -157.06640625 458.2734375 C-157.66638428 459.0675 -158.2663623 459.8615625 -158.88452148 460.6796875 C-160.05777719 462.23025969 -161.24545816 463.77005619 -162.44946289 465.296875 C-165.00908545 468.7143316 -166.94360529 471.51285417 -167.2421875 475.8515625 C-166.4675601 480.22331024 -165.0277335 482.95605849 -161.5625 485.6875 C-158.58581993 486.28941609 -156.41777872 486.49393113 -153.4467926 486.4359436 C-152.63412695 486.44389242 -151.8214613 486.45184123 -150.98416942 486.46003091 C-148.26290273 486.47927009 -145.54371783 486.45565133 -142.82250977 486.43212891 C-140.87093327 486.43698523 -138.91936174 486.44442436 -136.96780396 486.45425415 C-131.668014 486.47307474 -126.36896262 486.45421949 -121.06923032 486.42758989 C-115.52401186 486.40496394 -109.97882985 486.41317575 -104.43357849 486.41708374 C-95.11990285 486.41884995 -85.80651826 486.39668367 -76.49291992 486.35986328 C-65.72566916 486.31753968 -54.958845 486.31050534 -44.1915279 486.3229872 C-33.83472471 486.3343785 -23.47807174 486.32307773 -13.12129021 486.30064011 C-8.71351277 486.29135211 -4.30582725 486.2895987 0.10195732 486.2938118 C5.293627 486.29758039 10.48486281 486.28134892 15.67643356 486.24969101 C17.58155459 486.24120886 19.48671966 486.23950189 21.39185143 486.24507141 C23.99331269 486.25152254 26.59348067 486.23333692 29.19480896 486.20889282 C29.94822002 486.21645147 30.70163109 486.22401012 31.47787279 486.23179781 C36.57912641 486.14704278 39.51088354 484.9128761 43.4375 481.6875 C44.70213995 479.1582201 44.56690982 477.38743638 44.5703125 474.55859375 C44.57224609 473.00495117 44.57224609 473.00495117 44.57421875 471.41992188 C44.57035156 470.33259766 44.56648437 469.24527344 44.5625 468.125 C44.56636719 467.06474609 44.57023438 466.00449219 44.57421875 464.91210938 C44.56749582 459.4631769 44.36291951 454.15692243 43.67822266 448.75170898 C43.28101258 445.34561245 43.19262737 441.92430541 43.0625 438.5 C42.62999298 428.73081855 41.85577271 418.99476571 41.0625 409.25 C39.93276625 395.31437384 38.89220206 381.37476439 37.95159912 367.42501831 C37.81840782 365.45124257 37.68403047 363.47754646 37.54840088 361.50393677 C37.35807464 358.72681244 37.17245033 355.94941369 36.98828125 353.171875 C36.93218185 352.35978073 36.87608246 351.54768646 36.81828308 350.71098328 C35.68767236 333.26854748 35.68767236 333.26854748 40.4375 327.6875 C42.51948998 325.38720428 44.59869333 323.09031967 46.73046875 320.8359375 C48.42908784 318.69808739 49.03346068 317.35295345 49.4375 314.6875 C47.91382813 314.44966797 47.91382813 314.44966797 46.359375 314.20703125 C34.7077098 312.27882275 24.21952965 309.57877799 14.9609375 301.82421875 C13.48713877 300.48815823 13.48713877 300.48815823 11.4375 300.6875 C11.00630859 299.82318359 11.00630859 299.82318359 10.56640625 298.94140625 C9.84926327 297.50960175 9.12833993 296.07967964 8.40234375 294.65234375 C8.06332031 293.98332031 7.72429687 293.31429688 7.375 292.625 C7.03339844 291.95339844 6.69179688 291.28179687 6.33984375 290.58984375 C-6.56520799 263.38308966 13.21521364 213.41338635 21.82177734 186.61669922 C22.41701153 184.75169503 22.98441612 182.87787928 23.55078125 181.00390625 C26.875 170.3125 26.875 170.3125 30.4375 167.6875 C34.98663866 167.07295409 39.08046402 167.23515467 43.4375 168.6875 C45.66895949 172.68063804 45.81939287 176.18116415 45.4375 180.6875 C44.73698027 182.57367551 44.03273905 184.45860293 43.30444336 186.33422852 C41.65381248 190.81477796 40.38340075 195.41364127 39.0625 200 C38.75650879 201.06033447 38.45051758 202.12066895 38.13525391 203.21313477 C37.22939103 206.36941917 36.33149385 209.52783522 35.4375 212.6875 C35.19708984 213.53344727 34.95667969 214.37939453 34.70898438 215.25097656 C30.86216875 228.90773939 28.05836379 242.74865001 25.4375 256.6875 C25.13199219 258.24017578 25.13199219 258.24017578 24.8203125 259.82421875 C24.26912311 263.94689043 24.13359237 268.03182766 24.0625 272.1875 C24.02511719 273.01636719 23.98773438 273.84523438 23.94921875 274.69921875 C23.8889795 278.90927274 24.0376499 281.77783514 26.72265625 285.140625 C36.26724816 294.0946882 48.09758008 293.97671687 60.4375 293.6875 C63.39482551 286.67761416 65.78818808 279.62591425 67.875 272.3125 C68.32939453 270.72308594 68.32939453 270.72308594 68.79296875 269.1015625 C69.68246066 265.96572662 70.56041218 262.82682316 71.4375 259.6875 C71.77998779 258.49398926 71.77998779 258.49398926 72.12939453 257.27636719 C78.26964746 235.73987411 81.26023063 213.24554003 84.8203125 191.16796875 C87.1372051 176.83504387 89.76224028 162.73738553 93.4375 148.6875 C93.76492188 147.4190625 94.09234375 146.150625 94.4296875 144.84375 C95.82041392 139.55669087 97.26206057 134.28873657 98.7734375 129.03515625 C102.02382526 117.60796054 104.7392077 106.12101606 107.1875 94.5 C107.33611481 93.79530579 107.48472961 93.09061157 107.6378479 92.36456299 C108.5944918 87.81015959 109.52439549 83.25086756 110.4375 78.6875 C110.64938965 77.63828369 110.8612793 76.58906738 111.07958984 75.50805664 C112.06003459 70.44011783 112.67402212 65.68577872 112.5625 60.5 C112.54445313 59.39269531 112.52640625 58.28539062 112.5078125 57.14453125 C112.48460937 56.33371094 112.46140625 55.52289063 112.4375 54.6875 C105.5726425 51.03675423 98.69889553 48.16395524 91.3125 45.75 C90.27915527 45.40864014 89.24581055 45.06728027 88.18115234 44.71557617 C79.08852527 41.77570469 69.8971206 39.4059894 60.6015625 37.20703125 C55.66061608 36.0250286 50.7786822 34.67713481 45.890625 33.296875 C36.50473726 30.65643016 27.05466409 28.3486846 17.5625 26.125 C16.73665405 25.93084503 15.91080811 25.73669006 15.05993652 25.53665161 C0.90078049 22.20970396 0.90078049 22.20970396 -13.3125 19.125 C-14.03550293 18.96894287 -14.75850586 18.81288574 -15.50341797 18.65209961 C-24.06504496 16.95102605 -31.30188198 16.09158648 -38.1875 22.25 Z " fill="#030303" transform="translate(305.5625,4.3125)"/>
<path d="M0 0 C4.21962355 1.82211017 6.03822598 3.88642257 8 8 C8.20952713 10.69591571 8.28744431 13.13450509 8.1875 15.8125 C8.16719727 16.85180664 8.16719727 16.85180664 8.14648438 17.91210938 C8.11138845 19.60841265 8.05758943 21.30431136 8 23 C8.75394043 23.13051758 9.50788086 23.26103516 10.28466797 23.39550781 C18.8644647 24.8870785 27.43552377 26.42282596 36 28 C36.98871094 28.18111328 37.97742188 28.36222656 38.99609375 28.54882812 C41.46083961 29.01028936 43.91820932 29.49813777 46.375 30 C47.07351074 30.12922852 47.77202148 30.25845703 48.49169922 30.39160156 C53.60687463 31.48490213 56.32490616 33.44703918 60 37 C61.74285583 40.48571166 60.86359033 44.29513158 60 48 C57.75410675 50.99452434 56.55130633 51.81623122 53 53 C46.55784277 53.36223817 40.9384367 52.29375946 34.6875 50.8125 C24.46884341 48.4711804 14.21312604 46.52080691 3.8737793 44.78833008 C2.7887915 44.59779053 1.70380371 44.40725098 0.5859375 44.2109375 C-0.3726416 44.04899902 -1.3312207 43.88706055 -2.31884766 43.72021484 C-6.5958588 42.57131821 -10.15619283 40.41256861 -13 37 C-14.7032482 31.89025539 -14.26896051 26.53705176 -14.3125 21.1875 C-14.34150391 20.01123047 -14.37050781 18.83496094 -14.40039062 17.62304688 C-14.48025957 6.75472593 -14.48025957 6.75472593 -10 2 C-6.27420911 -0.48386059 -4.41288598 -0.3804212 0 0 Z " fill="#030303" transform="translate(259,128)"/>
<path d="M0 0 C0.66 0.33 1.32 0.66 2 1 C-10.87 13.87 -23.74 26.74 -37 40 C-37.66 39.67 -38.32 39.34 -39 39 C-15.04598036 12.97906957 -15.04598036 12.97906957 -3.41796875 3.19921875 C-1.85892049 1.91444826 -1.85892049 1.91444826 0 0 Z " fill="#222729" transform="translate(244,18)"/>
</svg>
